<?xml version="1.0" encoding="UTF-8"?>
<!-- Generated by Pixelmator Pro 3.6.17 -->
<svg width="512" height="512" viewBox="0 0 512 512" xmlns="http://www.w3.org/2000/svg">
  <g id="Group">
    <path id="Path" fill="none" stroke="#000000" stroke-width="32"
      d="M 448 256 C 448 362.038666 362.038666 448 256 448 C 149.961334 448 64 362.038666 64 256 C 64 149.961334 149.961334 64 256 64 C 362.038666 64 448 149.961334 448 256 Z" />
    <path id="path1" fill="none" stroke="#000000" stroke-width="32"
      d="M 160 256 C 160 202.980652 202.980667 160 256 160" />
    <path id="path2" fill="#000000" stroke="none"
      d="M 296 256 C 296 278.09137 278.0914 296 256 296 C 233.908615 296 216 278.09137 216 256 C 216 233.9086 233.908615 216 256 216 C 278.0914 216 296 233.9086 296 256 Z" />
  </g>
</svg>
